<mxfile host="Electron" agent="Mozilla/5.0 (Windows NT 10.0; Win64; x64) AppleWebKit/537.36 (KHTML, like Gecko) draw.io/26.2.2 Chrome/134.0.6998.178 Electron/35.1.2 Safari/537.36" version="26.2.2">
  <diagram name="Pagina-1" id="krED3sJsANVDu5ko0I0Z">
    <mxGraphModel dx="571" dy="336" grid="1" gridSize="10" guides="1" tooltips="1" connect="1" arrows="1" fold="1" page="1" pageScale="1" pageWidth="827" pageHeight="1169" math="1" shadow="0">
      <root>
        <mxCell id="0" />
        <mxCell id="1" parent="0" />
        <mxCell id="thDztx1oCbpW_m3j3_wX-14" value="" style="endArrow=classic;html=1;rounded=0;" parent="1" edge="1">
          <mxGeometry width="50" height="50" relative="1" as="geometry">
            <mxPoint x="324" y="199" as="sourcePoint" />
            <mxPoint x="324" y="319" as="targetPoint" />
          </mxGeometry>
        </mxCell>
        <mxCell id="thDztx1oCbpW_m3j3_wX-3" value="" style="endArrow=none;html=1;rounded=0;fillColor=#dae8fc;strokeColor=#66B2FF;exitX=0;exitY=0.5;exitDx=0;exitDy=0;exitPerimeter=0;" parent="1" edge="1">
          <mxGeometry width="50" height="50" relative="1" as="geometry">
            <mxPoint x="324" y="270" as="sourcePoint" />
            <mxPoint x="324" y="209" as="targetPoint" />
          </mxGeometry>
        </mxCell>
        <mxCell id="thDztx1oCbpW_m3j3_wX-4" value="" style="endArrow=none;html=1;rounded=0;fillColor=#dae8fc;strokeColor=#66B2FF;exitX=1;exitY=0.5;exitDx=0;exitDy=0;exitPerimeter=0;" parent="1" edge="1">
          <mxGeometry width="50" height="50" relative="1" as="geometry">
            <mxPoint x="424" y="270" as="sourcePoint" />
            <mxPoint x="424" y="209" as="targetPoint" />
          </mxGeometry>
        </mxCell>
        <mxCell id="thDztx1oCbpW_m3j3_wX-9" value="" style="endArrow=baseDash;startArrow=baseDash;html=1;rounded=0;startFill=0;endFill=0;" parent="1" edge="1">
          <mxGeometry width="50" height="50" relative="1" as="geometry">
            <mxPoint x="324" y="202" as="sourcePoint" />
            <mxPoint x="424" y="202" as="targetPoint" />
          </mxGeometry>
        </mxCell>
        <mxCell id="thDztx1oCbpW_m3j3_wX-10" value="$$d$$" style="text;html=1;align=center;verticalAlign=middle;resizable=0;points=[];autosize=1;strokeColor=none;fillColor=none;fontFamily=Times New Roman;" parent="1" vertex="1">
          <mxGeometry x="349" y="178" width="50" height="30" as="geometry" />
        </mxCell>
        <mxCell id="thDztx1oCbpW_m3j3_wX-13" value="" style="endArrow=classic;html=1;rounded=0;" parent="1" edge="1">
          <mxGeometry width="50" height="50" relative="1" as="geometry">
            <mxPoint x="286" y="209" as="sourcePoint" />
            <mxPoint x="477" y="209" as="targetPoint" />
          </mxGeometry>
        </mxCell>
        <mxCell id="1QDhz59vTBPpAG6Zwt3L-1" value="" style="pointerEvents=1;verticalLabelPosition=bottom;shadow=0;dashed=0;align=center;html=1;verticalAlign=top;shape=mxgraph.electrical.inductors.inductor_5;strokeColor=#009900;" vertex="1" parent="1">
          <mxGeometry x="324" y="261" width="100" height="14" as="geometry" />
        </mxCell>
      </root>
    </mxGraphModel>
  </diagram>
</mxfile>
